<?xml version="1.0" standalone="no"?>
<!DOCTYPE svg PUBLIC "-//W3C//DTD SVG 1.1//EN" "http://www.w3.org/Graphics/SVG/1.1/DTD/svg11.dtd">
<svg t="1749176241355" class="icon" viewBox="0 0 1186 1024" version="1.1" xmlns="http://www.w3.org/2000/svg" p-id="1670" xmlns:xlink="http://www.w3.org/1999/xlink" width="231.640625" height="200">
    <path d="M592.979172 99.298087C764.545352 247.565155 1107.6777 544.099291 1107.6777 544.099291 1127.383121 561.128658 1157.162536 558.959296 1174.191903 539.253885 1191.221271 519.548473 1189.051915 489.76905 1169.346507 472.739683L644.064741 18.792487C615.090477-6.247004 570.577796-6.245391 541.605404 18.792487L16.323639 472.739683C-3.381769 489.76905-5.551125 519.548473 11.478242 539.253885 28.50761 558.959296 58.287024 561.128658 77.992446 544.099291 77.992446 544.099291 590.438069 97.102073 592.979172 99.298087L592.979172 99.298087ZM249.34468 1017.263247 451.27768 1017.263247C481.089363 1017.263247 505.25651 993.204509 505.25651 963.284413L505.25651 707.372587 680.4121 707.372587 680.4121 963.284413C680.4121 993.0961 704.63663 1017.263247 734.344069 1017.263247L949.844297 1017.263247C979.630098 1017.263247 1003.776266 993.112147 1003.776266 963.461138L1003.776266 545.711842C1003.776266 519.655814 982.610236 498.53323 956.618992 498.53323 930.574743 498.53323 909.461718 519.580059 909.461718 545.574717L909.461718 922.948698 774.726648 922.948698 774.726648 667.036873C774.726648 637.225185 750.648346 613.058039 720.758247 613.058039L464.910363 613.058039C435.104446 613.058039 410.941961 637.116776 410.941961 667.036873L410.941961 922.948698 289.680399 922.948698 289.680399 545.574717C289.680399 519.59442 268.514368 498.53323 242.523125 498.53323 216.478876 498.53323 195.36585 519.672553 195.36585 545.711842L195.36585 963.461138C195.36585 993.175222 219.424589 1017.263247 249.34468 1017.263247Z" 
    fill="#ffffff" p-id="1671">
    </path>
</svg>

<!-- train svg -->

<svg t="1749224701842" class="icon" viewBox="0 0 1024 1024" version="1.1" xmlns="http://www.w3.org/2000/svg" p-id="7456" width="200" height="200">
    <path d="M929.4 542.5c16.6 0 30-13.4 30-30s-13.4-30-30-30h-58.9v-81.6h58.9c16.6 0 30-13.4 30-30s-13.4-30-30-30h-58.9V219.8c0-36.4-29.6-66-66-66H683.7V93.9c0-16.6-13.4-30-30-30s-30 13.4-30 30v59.9h-81.6V93.9c0-16.6-13.4-30-30-30s-30 13.4-30 30v59.9h-81.6V93.9c0-16.6-13.4-30-30-30s-30 13.4-30 30v59.9H220.8c-36.4 0-66 29.6-66 66v121.1H93.9c-16.6 0-30 13.4-30 30s13.4 30 30 30h60.9v81.6H93.9c-16.6 0-30 13.4-30 30s13.4 30 30 30h60.9v81.6H93.9c-16.6 0-30 13.4-30 30s13.4 30 30 30h60.9v119.4c0 36.4 29.6 66 66 66h119.7v59.9c0 16.6 13.4 30 30 30s30-13.4 30-30v-59.9h81.6v59.9c0 16.6 13.4 30 30 30s30-13.4 30-30v-59.9h81.6v59.9c0 16.6 13.4 30 30 30s30-13.4 30-30v-59.9h120.8c36.4 0 66-29.6 66-66V684.1h58.9c16.6 0 30-13.4 30-30s-13.4-30-30-30h-58.9v-81.6h58.9zM798.5 797.4H226.8V225.8h571.6v571.6h0.1z" 
    fill="#4CAF50" p-id="7457">
    </path>
    <path d="M651.25 682.667h-278.5c-17.28 0-31.417-14.137-31.417-31.416V372.749c0-17.279 14.137-31.416 31.416-31.416h278.502c17.279 0 31.416 14.137 31.416 31.416v278.502c0 17.279-14.137 31.416-31.416 31.416z" fill="#4CAF50" p-id="7458"></path><path d="M384 426.667c0 23.564 19.103 42.666 42.667 42.666s42.666-19.102 42.666-42.666c0-23.564-19.102-42.667-42.666-42.667C403.103 384 384 403.103 384 426.667z" 
    fill="#4CAF50" p-id="7459">
    </path>
</svg>

<svg t="1749224701842" class="icon" viewBox="0 0 1024 1024" version="1.1" xmlns="http://www.w3.org/2000/svg" p-id="7456" width="200" height="200">
    <path d="M929.4 542.5c16.6 0 30-13.4 30-30s-13.4-30-30-30h-58.9v-81.6h58.9c16.6 0 30-13.4 30-30s-13.4-30-30-30h-58.9V219.8c0-36.4-29.6-66-66-66H683.7V93.9c0-16.6-13.4-30-30-30s-30 13.4-30 30v59.9h-81.6V93.9c0-16.6-13.4-30-30-30s-30 13.4-30 30v59.9h-81.6V93.9c0-16.6-13.4-30-30-30s-30 13.4-30 30v59.9H220.8c-36.4 0-66 29.6-66 66v121.1H93.9c-16.6 0-30 13.4-30 30s13.4 30 30 30h60.9v81.6H93.9c-16.6 0-30 13.4-30 30s13.4 30 30 30h60.9v81.6H93.9c-16.6 0-30 13.4-30 30s13.4 30 30 30h60.9v119.4c0 36.4 29.6 66 66 66h119.7v59.9c0 16.6 13.4 30 30 30s30-13.4 30-30v-59.9h81.6v59.9c0 16.6 13.4 30 30 30s30-13.4 30-30v-59.9h81.6v59.9c0 16.6 13.4 30 30 30s30-13.4 30-30v-59.9h120.8c36.4 0 66-29.6 66-66V684.1h58.9c16.6 0 30-13.4 30-30s-13.4-30-30-30h-58.9v-81.6h58.9zM798.5 797.4H226.8V225.8h571.6v571.6h0.1z" 
    fill="#ffffff" p-id="7457">
    </path>
    <path d="M651.25 682.667h-278.5c-17.28 0-31.417-14.137-31.417-31.416V372.749c0-17.279 14.137-31.416 31.416-31.416h278.502c17.279 0 31.416 14.137 31.416 31.416v278.502c0 17.279-14.137 31.416-31.416 31.416z" 
    fill="#ffffff" p-id="7458">
    </path>
    <path d="M384 426.667c0 23.564 19.103 42.666 42.667 42.666s42.666-19.102 42.666-42.666c0-23.564-19.102-42.667-42.666-42.667C403.103 384 384 403.103 384 426.667z" 
    fill="#ffffff" p-id="7459">
    </path>
</svg>


<!-- agent -->
<svg t="1749228292038" class="icon" viewBox="0 0 1024 1024" version="1.1" xmlns="http://www.w3.org/2000/svg" p-id="9521" width="200" height="200">
    <path d="M298.666667 810.666667h426.666666v42.666666a42.666667 42.666667 0 0 1-42.666666 42.666667H341.333333a42.666667 42.666667 0 0 1-42.666666-42.666667v-42.666666zM725.333333 170.666667a170.666667 170.666667 0 0 1 170.666667 170.666666v256a170.666667 170.666667 0 0 1-170.666667 170.666667H298.666667a170.666667 170.666667 0 0 1-170.666667-170.666667V341.333333a170.666667 170.666667 0 0 1 170.666667-170.666666h426.666666z m-85.333333 213.333333a42.666667 42.666667 0 0 0-42.666667 42.666667v85.333333a42.666667 42.666667 0 0 0 85.333334 0v-85.333333a42.666667 42.666667 0 0 0-42.666667-42.666667zM384 384a42.666667 42.666667 0 0 0-42.666667 42.666667v85.333333a42.666667 42.666667 0 1 0 85.333334 0v-85.333333a42.666667 42.666667 0 0 0-42.666667-42.666667z m576-42.666667a42.666667 42.666667 0 0 1 42.666667 42.666667v170.666667a42.666667 42.666667 0 0 1-85.333334 0V384a42.666667 42.666667 0 0 1 42.666667-42.666667z m-896 0a42.666667 42.666667 0 0 1 42.666667 42.666667v170.666667a42.666667 42.666667 0 1 1-85.333334 0V384a42.666667 42.666667 0 0 1 42.666667-42.666667z" 
    fill="#ffffff" p-id="9522">
    </path>
</svg>

<!-- settings -->

<svg t="1749796992781" class="icon" viewBox="0 0 1024 1024" version="1.1" xmlns="http://www.w3.org/2000/svg" p-id="4271" width="200" height="200">
    <path d="M511.9935 699.733c-102.4 0-187.733-85.333-187.733-187.733s85.333-187.733 187.733-187.733S699.7265 409.6 699.7265 512s-85.333 187.733-187.733 187.733z m472.177-250.311c-5.689-22.756-22.756-39.822-45.511-45.511l-11.378-5.689c-34.133-11.378-68.267-34.133-91.022-68.267s-22.756-73.956-17.067-113.778l5.689-11.378c5.689-17.067 0-45.511-17.067-62.578 0 0-17.067-11.378-56.889-34.133s-56.889-28.444-56.889-28.444c-22.756-5.689-45.511 0-62.578 17.067l-11.378 11.378c-28.444 22.756-68.267 39.822-108.089 39.822s-79.644-17.067-108.089-39.822l-5.689-17.067c-17.067-11.378-45.511-22.756-62.578-11.378 0 0-17.067 5.689-56.889 28.444s-56.889 34.133-56.889 34.133c-17.067 17.067-28.444 39.822-22.756 62.578l5.689 17.067c11.378 34.133 5.689 73.956-17.067 113.778-22.756 28.444-51.2 51.2-91.022 62.578l-11.378 5.689c-22.756 0-39.822 22.756-45.511 45.511 0 0-5.689 17.067-5.689 62.578s5.689 62.578 5.689 62.578c5.689 22.756 22.756 39.822 45.511 45.511l11.378 5.689c34.133 11.378 68.267 34.133 91.022 68.267s22.756 73.956 17.067 113.778l-5.689 11.378c-5.689 17.067 0 45.511 17.067 62.578 0 0 17.067 11.378 56.889 34.133s56.889 28.444 56.889 28.444c22.756 5.689 45.511 0 62.578-17.067l11.378-11.378c28.444-28.444 62.578-39.822 108.089-39.822 39.822 0 79.644 17.067 108.089 39.822l11.378 11.378c17.067 17.067 39.822 22.756 62.578 17.067 0 0 17.067-5.689 56.889-28.444s56.889-34.133 56.889-34.133 22.756-39.822 17.067-62.578l-5.689-17.067c-11.378-34.133-5.689-73.956 17.067-108.089s51.2-56.889 91.022-68.267l17.067-5.689c22.756-5.689 39.822-22.756 45.511-45.511 0 0 5.689-17.067 5.689-62.578-5.689-45.511-11.378-62.578-11.378-62.578z" 
    p-id="4272" fill="#ffffff">
    </path>
</svg>

<!-- User -->
<svg t="1749797331822" class="icon" viewBox="0 0 1024 1024" version="1.1" xmlns="http://www.w3.org/2000/svg" p-id="5316" width="200" height="200">
    <path d="M515.2 226.752m-226.752 0a226.752 226.752 0 1 0 453.504 0 226.752 226.752 0 1 0-453.504 0Z" 
    fill="#d4237a" p-id="5317">
    </path>
    <path d="M906.496 1024H123.904c-42.24 0-76.8-34.56-76.8-76.8v-147.904C47.104 641.28 176.384 512 334.4 512h361.536c158.016 0 287.296 129.28 287.296 287.296V947.2c0.064 42.24-34.496 76.8-76.736 76.8z" 
    fill="#d4237a" p-id="5318">
    </path>
</svg>

<!-- simulations -->
<svg t="1749803724534" class="icon" viewBox="0 0 1080 1024" version="1.1" xmlns="http://www.w3.org/2000/svg" p-id="9043" width="200" height="200">
    <path d="M755.882667 460.231111a28.444444 28.444444 0 0 1 0 46.648889l-284.444445 199.111111A28.444444 28.444444 0 0 1 426.666667 682.666667V284.444444a28.444444 28.444444 0 0 1 44.771555-23.324444l284.444445 199.111111zM483.555556 339.057778v288.995555l206.392888-144.497777L483.555556 339.057778z" fill="#ffffff" p-id="9044"></path><path d="M983.324444 378.88a113.777778 113.777778 0 1 1-60.814222-7.964444 398.392889 398.392889 0 0 0-749.340444-41.528889 28.444444 28.444444 0 1 1-52.451556-22.072889A455.168 455.168 0 0 1 983.324444 378.88z m-17.009777-5.688889a23.153778 23.153778 0 0 0-7.964445-2.787555l-3.527111-0.568889a28.330667 28.330667 0 0 1 11.491556 3.356444z m-19.171556 54.101333a56.888889 56.888889 0 1 0 6.314667 1.308445 28.672 28.672 0 0 1-6.314667-1.308445zM105.244444 648.078222a113.777778 113.777778 0 1 1 61.155556 3.584 398.449778 398.449778 0 0 0 737.848889 25.201778 28.444444 28.444444 0 1 1 51.939555 23.210667 455.281778 455.281778 0 0 1-850.944-51.996445z m36.977778-50.744889a56.888889 56.888889 0 1 0 0-113.777777 56.888889 56.888889 0 0 0 0 113.777777z" 
    fill="#ffffff" p-id="9045">
    </path>
</svg>

<!-- data -->
<svg t="1749803929561" class="icon" viewBox="0 0 1024 1024" version="1.1" xmlns="http://www.w3.org/2000/svg" p-id="10092" width="200" height="200">
    <path d="M512 0C296.192 0 64 65.056 64 208v608C64 958.88 296.192 1024 512 1024c215.776 0 448-65.12 448-208v-608C960 65.056 727.744 0 512 0z m384 816c0 79.488-171.936 144-384 144-212.096 0-384-64.512-384-144v-119.552C194.112 764.576 353.6 800 512 800s317.888-35.424 384-103.552V816z m0-192h-0.128c0 0.32 0.128 0.672 0.128 0.992C896 704 724.064 768 512 768S128 704 128 624.992c0-0.32 0.128-0.672 0.128-0.992H128v-119.552C194.112 572.576 353.6 608 512 608s317.888-35.424 384-103.552V624z m0-192h-0.128c0 0.32 0.128 0.672 0.128 0.992C896 512 724.064 576 512 576S128 512 128 432.992c0-0.32 0.128-0.672 0.128-0.992H128v-109.952C211.872 385.952 365.6 416 512 416s300.128-30.048 384-93.952V432zM512 352C299.904 352 128 287.488 128 208 128 128.448 299.904 64 512 64c212.064 0 384 64.448 384 144 0 79.488-171.936 144-384 144z" 
    fill="#ffffff" p-id="10093">
    </path>
    <path d="M800 832m-32 0a32 32 0 1 0 64 0 32 32 0 1 0-64 0Z" fill="#ffffff" p-id="10094">
    </path>
    <path d="M800 640m-32 0a32 32 0 1 0 64 0 32 32 0 1 0-64 0Z" fill="#ffffff" p-id="10095">
    </path>
    <path d="M800 448m-32 0a32 32 0 1 0 64 0 32 32 0 1 0-64 0Z" fill="#ffffff" p-id="10096">
    </path>
</svg>
